# xmcd
#
# Track frame offsets:
#	150
#	14581
#	26655
#	38694
#	50980
#	64267
#	80234
#	94013
#	108034
#	119489
#	134879
#	148237
#	161204
#	174519
#	190658
#
# Disc length: 2733 seconds
# Revision: 0
# Processed by: cddbd v1.5.2PL0 Copyright (c) Steve Scherf et al.
# Submitted via: dBpowerAMP V12.0
#
DISCID=e10aab0f
DTITLE=Chris Callaghan - My Music My Life
DYEAR=2016
DGENRE=Country
TTITLE0=Whatever It Takes
TTITLE1=Just A Country Boy
TTITLE2=Listen To The Rain
TTITLE3=Where Is The Love
TTITLE4=Pretty Little Love
TTITLE5=Rockin' Good Time
TTITLE6=Living In The Shadow
TTITLE7=It Must Be Love
TTITLE8=Twenty Hours
TTITLE9=Tragedy Comedy
TTITLE10=Almost Gone
TTITLE11=A Better Place
TTITLE12=The Last Song
TTITLE13=A Love Of A King
TTITLE14=Blame It All On Country
EXTD=
EXTT0=
EXTT1=
EXTT2=
EXTT3=
EXTT4=
EXTT5=
EXTT6=
EXTT7=
EXTT8=
EXTT9=
EXTT10=
EXTT11=
EXTT12=
EXTT13=
EXTT14=
PLAYORDER=
